<svg width="707" height="281" viewBox="0 0 707 281" fill="none" xmlns="http://www.w3.org/2000/svg">
<path d="M205.749 138.582L236.079 96.0536H214.65L195.034 123.417L176.078 96.0536H153L183.496 139.736L151.187 184.737H172.781L194.045 154.901L214.98 184.737H238.057L205.749 138.582Z" fill="#DBFF00"/>
<path fill-rule="evenodd" clip-rule="evenodd" d="M127.323 114.735L-68.9125 114.736L-86.0279 139.566L-68.7674 165.255L127.177 165.255L145.215 139.57L127.323 114.735ZM168.622 139.428L137.09 95.6615L-78.9311 95.6617L-109.1 139.428L-78.9311 184.329L137.09 184.329L168.622 139.428Z" fill="#DBFF00"/>
<path d="M267.44 137.841C267.44 121.956 272.41 110.492 286.989 110.492C301.567 110.492 302.727 122.12 302.727 134.075V184.679H322.441V137.841C322.441 121.956 327.411 110.492 341.989 110.492C356.568 110.492 357.727 122.12 357.727 134.075V184.679H377.441V129.325C377.441 108.363 369.489 94.6063 348.284 94.6063C337.185 94.6063 327.079 99.0281 319.293 110.164C315.152 100.338 307.2 94.6063 293.284 94.6063C281.356 94.6063 272.576 99.6832 267.44 108.854V96.5716H247.726V184.679H267.44V137.841Z" fill="black"/>
<path d="M478.534 146.194C480.356 116.715 463.127 94.6063 435.793 94.6063C410.446 94.6063 392.057 113.44 392.057 139.97C392.057 165.355 408.458 186.808 437.118 186.808C459.98 186.808 473.564 172.397 477.54 158.312H458.157C454.678 166.665 446.726 170.595 436.29 170.595C425.024 170.595 413.428 162.57 412.103 146.194H478.534ZM435.793 109.837C447.389 109.837 457.992 118.189 458.489 131.946H412.103C413.925 115.405 426.515 109.837 435.793 109.837Z" fill="black"/>
<path d="M497.583 96.5716H484.33V110.656H497.583V161.588C497.583 179.602 501.393 184.679 520.444 184.679H535.023V169.776H527.899C519.45 169.776 517.297 167.647 517.297 158.64V110.656H535.188V96.5716H517.297V73.3164H497.583V96.5716Z" fill="black"/>
<path d="M606.232 149.96C606.232 165.027 597.618 172.233 583.039 172.233C573.099 172.233 566.639 167.647 566.639 159.95C566.639 149.96 578.069 145.866 606.232 143.246V149.96ZM578.732 186.808C591.985 186.808 602.256 182.386 608.055 172.724C608.552 178.784 609.049 180.913 609.711 184.679H627.769C625.946 177.31 625.118 165.682 625.118 154.546C625.118 146.521 625.449 136.04 625.449 131.782C625.946 103.614 609.214 93.9513 587.844 93.9513C566.307 93.9513 551.232 106.398 549.907 124.249H569.289C569.786 113.604 577.241 108.363 587.181 108.363C597.121 108.363 605.735 112.948 605.735 128.015V129.653C573.265 133.092 545.765 138.333 545.765 160.441C545.765 176.491 559.349 186.808 578.732 186.808Z" fill="black"/>
<path d="M665.099 65.9468H645.385V184.679H665.099V65.9468Z" fill="black"/>
<path d="M707 65.9468H687.286V184.679H707V65.9468Z" fill="black"/>
</svg>
